<mxfile host="app.diagrams.net" agent="Mozilla/5.0 (Windows NT 10.0; Win64; x64; rv:132.0) Gecko/20100101 Firefox/132.0" version="24.8.3">
  <diagram name="Страница — 1" id="CqbkalOceDS1Ib8Ocr17">
    <mxGraphModel dx="1205" dy="474" grid="1" gridSize="10" guides="1" tooltips="1" connect="1" arrows="1" fold="1" page="1" pageScale="1" pageWidth="827" pageHeight="1169" math="0" shadow="0">
      <root>
        <mxCell id="0" />
        <mxCell id="1" parent="0" />
        <mxCell id="L7aEFFnraW9-ZdmLWbNs-1" value="&lt;div style=&quot;margin-top: -90px;&quot; align=&quot;center&quot;&gt;Vega 2.0&lt;/div&gt;" style="rounded=1;whiteSpace=wrap;html=1;align=center;" parent="1" vertex="1">
          <mxGeometry x="540" y="40" width="230" height="190" as="geometry" />
        </mxCell>
        <mxCell id="L7aEFFnraW9-ZdmLWbNs-2" value="&lt;div align=&quot;center&quot; style=&quot;padding-top: 0px; padding-right: 0px; margin-top: -30px;&quot;&gt;Kafka&lt;/div&gt;" style="rounded=0;whiteSpace=wrap;html=1;align=center;shadow=0;imageVerticalAlign=top;imageAspect=0;imageAlign=center;overflow=visible;" parent="1" vertex="1">
          <mxGeometry x="595" y="160" width="120" height="60" as="geometry" />
        </mxCell>
        <mxCell id="L7aEFFnraW9-ZdmLWbNs-3" value="topic &quot;sqm&quot;" style="rounded=1;whiteSpace=wrap;html=1;shadow=0;strokeColor=default;align=center;verticalAlign=middle;fontFamily=Helvetica;fontSize=12;fontColor=default;fillColor=default;" parent="1" vertex="1">
          <mxGeometry x="610" y="190" width="90" height="30" as="geometry" />
        </mxCell>
        <mxCell id="L7aEFFnraW9-ZdmLWbNs-4" value="&lt;div style=&quot;margin-top: -90px;&quot; align=&quot;center&quot;&gt;SQM&lt;/div&gt;" style="rounded=1;whiteSpace=wrap;html=1;align=center;" parent="1" vertex="1">
          <mxGeometry x="130" y="40" width="310" height="190" as="geometry" />
        </mxCell>
        <mxCell id="L7aEFFnraW9-ZdmLWbNs-8" style="edgeStyle=orthogonalEdgeStyle;rounded=0;orthogonalLoop=1;jettySize=auto;html=1;entryX=0;entryY=0.5;entryDx=0;entryDy=0;fontFamily=Helvetica;fontSize=12;fontColor=default;" parent="1" source="L7aEFFnraW9-ZdmLWbNs-7" target="L7aEFFnraW9-ZdmLWbNs-2" edge="1">
          <mxGeometry relative="1" as="geometry" />
        </mxCell>
        <mxCell id="L7aEFFnraW9-ZdmLWbNs-12" value="TCP:9092" style="edgeLabel;html=1;align=center;verticalAlign=middle;resizable=0;points=[];rounded=0;shadow=0;strokeColor=default;fontFamily=Helvetica;fontSize=12;fontColor=default;fillColor=default;" parent="L7aEFFnraW9-ZdmLWbNs-8" vertex="1" connectable="0">
          <mxGeometry x="-0.0788" y="-2" relative="1" as="geometry">
            <mxPoint x="-16" y="-2" as="offset" />
          </mxGeometry>
        </mxCell>
        <mxCell id="L7aEFFnraW9-ZdmLWbNs-11" style="edgeStyle=orthogonalEdgeStyle;rounded=0;orthogonalLoop=1;jettySize=auto;html=1;entryX=1;entryY=0.5;entryDx=0;entryDy=0;fontFamily=Helvetica;fontSize=12;fontColor=default;" parent="1" source="L7aEFFnraW9-ZdmLWbNs-7" target="L7aEFFnraW9-ZdmLWbNs-9" edge="1">
          <mxGeometry relative="1" as="geometry" />
        </mxCell>
        <mxCell id="L7aEFFnraW9-ZdmLWbNs-7" value="&lt;div&gt;Adapter Vega&lt;/div&gt;" style="rounded=0;whiteSpace=wrap;html=1;align=center;shadow=0;imageVerticalAlign=top;imageAspect=0;imageAlign=center;overflow=visible;" parent="1" vertex="1">
          <mxGeometry x="350" y="160" width="80" height="60" as="geometry" />
        </mxCell>
        <mxCell id="L7aEFFnraW9-ZdmLWbNs-9" value="&lt;div align=&quot;center&quot; style=&quot;padding-top: 0px; padding-right: 0px; margin-top: -30px;&quot;&gt;Kafka&lt;/div&gt;" style="rounded=0;whiteSpace=wrap;html=1;align=center;shadow=0;imageVerticalAlign=top;imageAspect=0;imageAlign=center;overflow=visible;" parent="1" vertex="1">
          <mxGeometry x="140" y="160" width="160" height="60" as="geometry" />
        </mxCell>
        <mxCell id="L7aEFFnraW9-ZdmLWbNs-10" value="&lt;div&gt;topic&amp;nbsp;&lt;/div&gt;&lt;div&gt;&quot;radacct&quot;&lt;/div&gt;" style="rounded=1;whiteSpace=wrap;html=1;shadow=0;strokeColor=default;align=center;verticalAlign=middle;fontFamily=Helvetica;fontSize=12;fontColor=default;fillColor=default;" parent="1" vertex="1">
          <mxGeometry x="150" y="190" width="140" height="30" as="geometry" />
        </mxCell>
        <mxCell id="yEPGhI6gahbzNLUMz_Bi-1" value="" style="rounded=1;whiteSpace=wrap;html=1;align=top;" parent="1" vertex="1">
          <mxGeometry x="550" y="330" width="230" height="190" as="geometry" />
        </mxCell>
        <mxCell id="yEPGhI6gahbzNLUMz_Bi-2" value="" style="rounded=0;whiteSpace=wrap;html=1;align=center;shadow=0;imageVerticalAlign=top;imageAspect=0;imageAlign=center;overflow=visible;" parent="1" vertex="1">
          <mxGeometry x="570" y="350" width="200" height="160" as="geometry" />
        </mxCell>
        <mxCell id="yEPGhI6gahbzNLUMz_Bi-3" value="&lt;div&gt;topic&amp;nbsp;&lt;/div&gt;&lt;div&gt;&quot;sova-inventory-device&quot;&lt;/div&gt;" style="rounded=1;whiteSpace=wrap;html=1;shadow=0;strokeColor=default;align=center;verticalAlign=middle;fontFamily=Helvetica;fontSize=12;fontColor=default;fillColor=default;" parent="1" vertex="1">
          <mxGeometry x="580" y="370" width="180" height="30" as="geometry" />
        </mxCell>
        <mxCell id="yEPGhI6gahbzNLUMz_Bi-4" value="&lt;div&gt;SQM&lt;/div&gt;&lt;div&gt;&lt;br&gt;&lt;/div&gt;&lt;div&gt;&lt;br&gt;&lt;/div&gt;&lt;div&gt;&lt;br&gt;&lt;/div&gt;&lt;div&gt;&lt;br&gt;&lt;/div&gt;&lt;div&gt;&lt;br&gt;&lt;/div&gt;&lt;div&gt;&lt;br&gt;&lt;/div&gt;&lt;div&gt;&lt;br&gt;&lt;/div&gt;&lt;div&gt;&lt;br&gt;&lt;/div&gt;&lt;div&gt;&lt;br&gt;&lt;/div&gt;&lt;div&gt;&lt;br&gt;&lt;/div&gt;" style="rounded=1;whiteSpace=wrap;html=1;align=center;arcSize=11;" parent="1" vertex="1">
          <mxGeometry x="140" y="330" width="310" height="190" as="geometry" />
        </mxCell>
        <mxCell id="yEPGhI6gahbzNLUMz_Bi-5" style="edgeStyle=orthogonalEdgeStyle;rounded=0;orthogonalLoop=1;jettySize=auto;html=1;fontFamily=Helvetica;fontSize=12;fontColor=default;exitX=0;exitY=0.5;exitDx=0;exitDy=0;entryX=1;entryY=0.5;entryDx=0;entryDy=0;" parent="1" source="yEPGhI6gahbzNLUMz_Bi-1" target="yEPGhI6gahbzNLUMz_Bi-9" edge="1">
          <mxGeometry relative="1" as="geometry">
            <mxPoint x="440" y="480" as="sourcePoint" />
            <mxPoint x="490" y="320" as="targetPoint" />
          </mxGeometry>
        </mxCell>
        <mxCell id="yEPGhI6gahbzNLUMz_Bi-6" value="" style="edgeLabel;html=1;align=center;verticalAlign=middle;resizable=0;points=[];rounded=0;shadow=0;strokeColor=default;fontFamily=Helvetica;fontSize=12;fontColor=default;fillColor=default;" parent="yEPGhI6gahbzNLUMz_Bi-5" vertex="1" connectable="0">
          <mxGeometry x="-0.0788" y="-2" relative="1" as="geometry">
            <mxPoint x="54" y="-2" as="offset" />
          </mxGeometry>
        </mxCell>
        <mxCell id="yEPGhI6gahbzNLUMz_Bi-13" value="Kafka ENGINE" style="edgeLabel;html=1;align=center;verticalAlign=middle;resizable=0;points=[];rounded=1;strokeColor=default;fontFamily=Helvetica;fontSize=12;fontColor=default;fillColor=default;" parent="yEPGhI6gahbzNLUMz_Bi-5" vertex="1" connectable="0">
          <mxGeometry x="-0.6229" relative="1" as="geometry">
            <mxPoint x="-47" y="-10" as="offset" />
          </mxGeometry>
        </mxCell>
        <mxCell id="yEPGhI6gahbzNLUMz_Bi-9" value="БД ClickHouse" style="rounded=0;whiteSpace=wrap;html=1;align=center;shadow=0;imageVerticalAlign=top;imageAspect=0;imageAlign=center;overflow=visible;" parent="1" vertex="1">
          <mxGeometry x="215" y="395" width="160" height="60" as="geometry" />
        </mxCell>
        <mxCell id="yEPGhI6gahbzNLUMz_Bi-12" value="&lt;div&gt;topic&amp;nbsp;&lt;/div&gt;&lt;div&gt;&quot;sova-inventory-links&quot;&lt;/div&gt;" style="rounded=1;whiteSpace=wrap;html=1;shadow=0;strokeColor=default;align=center;verticalAlign=middle;fontFamily=Helvetica;fontSize=12;fontColor=default;fillColor=default;" parent="1" vertex="1">
          <mxGeometry x="580" y="420" width="180" height="30" as="geometry" />
        </mxCell>
        <mxCell id="wJ8KrlMlpTtMy6ue6bhl-1" value="&lt;div&gt;Консолидирующий слой&lt;code&gt;&lt;br&gt;&lt;/code&gt;&lt;/div&gt;&lt;div&gt;&lt;br&gt;&lt;/div&gt;&lt;div&gt;&lt;br&gt;&lt;/div&gt;&lt;div&gt;&lt;br&gt;&lt;/div&gt;&lt;div&gt;&lt;br&gt;&lt;/div&gt;&lt;div&gt;&lt;br&gt;&lt;/div&gt;&lt;div&gt;&lt;br&gt;&lt;/div&gt;&lt;div&gt;&lt;br&gt;&lt;/div&gt;&lt;div&gt;&lt;br&gt;&lt;/div&gt;&lt;div&gt;&lt;br&gt;&lt;/div&gt;&lt;div&gt;&lt;br&gt;&lt;/div&gt;" style="rounded=1;whiteSpace=wrap;html=1;align=top;" parent="1" vertex="1">
          <mxGeometry x="550" y="640" width="230" height="190" as="geometry" />
        </mxCell>
        <mxCell id="wJ8KrlMlpTtMy6ue6bhl-4" value="&lt;div&gt;SQM&lt;/div&gt;&lt;div&gt;&lt;br&gt;&lt;/div&gt;&lt;div&gt;&lt;br&gt;&lt;/div&gt;&lt;div&gt;&lt;br&gt;&lt;/div&gt;&lt;div&gt;&lt;br&gt;&lt;/div&gt;&lt;div&gt;&lt;br&gt;&lt;/div&gt;&lt;div&gt;&lt;br&gt;&lt;/div&gt;&lt;div&gt;&lt;br&gt;&lt;/div&gt;&lt;div&gt;&lt;br&gt;&lt;/div&gt;&lt;div&gt;&lt;br&gt;&lt;/div&gt;&lt;div&gt;&lt;br&gt;&lt;/div&gt;" style="rounded=1;whiteSpace=wrap;html=1;align=center;arcSize=11;" parent="1" vertex="1">
          <mxGeometry x="140" y="640" width="310" height="190" as="geometry" />
        </mxCell>
        <mxCell id="wJ8KrlMlpTtMy6ue6bhl-5" style="edgeStyle=orthogonalEdgeStyle;rounded=0;orthogonalLoop=1;jettySize=auto;html=1;fontFamily=Helvetica;fontSize=12;fontColor=default;entryX=1;entryY=0.5;entryDx=0;entryDy=0;exitX=0;exitY=0.5;exitDx=0;exitDy=0;" parent="1" source="0c0U7OgSNv3xbRfHRChP-2" target="wJ8KrlMlpTtMy6ue6bhl-8" edge="1">
          <mxGeometry relative="1" as="geometry">
            <mxPoint x="500" y="620" as="sourcePoint" />
          </mxGeometry>
        </mxCell>
        <mxCell id="wJ8KrlMlpTtMy6ue6bhl-6" value="HTTPS" style="edgeLabel;html=1;align=center;verticalAlign=middle;resizable=0;points=[];rounded=0;shadow=0;strokeColor=default;fontFamily=Helvetica;fontSize=12;fontColor=default;fillColor=default;" parent="wJ8KrlMlpTtMy6ue6bhl-5" vertex="1" connectable="0">
          <mxGeometry x="-0.0788" y="-2" relative="1" as="geometry">
            <mxPoint x="-12" y="-13" as="offset" />
          </mxGeometry>
        </mxCell>
        <mxCell id="0c0U7OgSNv3xbRfHRChP-3" style="edgeStyle=orthogonalEdgeStyle;rounded=0;orthogonalLoop=1;jettySize=auto;html=1;" edge="1" parent="1" source="wJ8KrlMlpTtMy6ue6bhl-8" target="0c0U7OgSNv3xbRfHRChP-1">
          <mxGeometry relative="1" as="geometry" />
        </mxCell>
        <mxCell id="wJ8KrlMlpTtMy6ue6bhl-8" value="&lt;div&gt;&lt;code&gt;cons-layer&lt;/code&gt;&lt;/div&gt;&lt;div&gt;reciever&lt;/div&gt;" style="rounded=0;whiteSpace=wrap;html=1;align=center;shadow=0;imageVerticalAlign=top;imageAspect=0;imageAlign=center;overflow=visible;" parent="1" vertex="1">
          <mxGeometry x="319" y="705" width="95" height="60" as="geometry" />
        </mxCell>
        <mxCell id="-GR8mmAhyP1Z9ofL-1Rl-1" value="БД топологии сети" style="text;html=1;align=center;verticalAlign=middle;whiteSpace=wrap;rounded=0;" parent="1" vertex="1">
          <mxGeometry x="580" y="330" width="170" height="20" as="geometry" />
        </mxCell>
        <mxCell id="-GR8mmAhyP1Z9ofL-1Rl-3" value="kafka oss" style="text;html=1;align=center;verticalAlign=middle;whiteSpace=wrap;rounded=0;" parent="1" vertex="1">
          <mxGeometry x="580" y="350" width="170" height="20" as="geometry" />
        </mxCell>
        <mxCell id="-GR8mmAhyP1Z9ofL-1Rl-4" value="&lt;div&gt;topic&amp;nbsp;&lt;/div&gt;&lt;div&gt;&quot;sova-inventory-links-extended&quot;&lt;/div&gt;" style="rounded=1;whiteSpace=wrap;html=1;shadow=0;strokeColor=default;align=center;verticalAlign=middle;fontFamily=Helvetica;fontSize=12;fontColor=default;fillColor=default;" parent="1" vertex="1">
          <mxGeometry x="580" y="470" width="180" height="30" as="geometry" />
        </mxCell>
        <mxCell id="0c0U7OgSNv3xbRfHRChP-1" value="БД ClickHouse" style="rounded=0;whiteSpace=wrap;html=1;align=center;shadow=0;imageVerticalAlign=top;imageAspect=0;imageAlign=center;overflow=visible;" vertex="1" parent="1">
          <mxGeometry x="170" y="705" width="100" height="60" as="geometry" />
        </mxCell>
        <mxCell id="0c0U7OgSNv3xbRfHRChP-2" value="&lt;div&gt;Target table:&lt;br&gt;&lt;/div&gt;&lt;div&gt;&quot;Новые инсталляции&quot;&lt;br&gt;&lt;/div&gt;" style="rounded=0;whiteSpace=wrap;html=1;" vertex="1" parent="1">
          <mxGeometry x="610" y="705" width="130" height="60" as="geometry" />
        </mxCell>
      </root>
    </mxGraphModel>
  </diagram>
</mxfile>
